<svg width="18" height="18" viewBox="0 0 18 18" fill="none" xmlns="http://www.w3.org/2000/svg">
<path d="M1.5 6.29972C1.49991 5.76149 1.6071 5.22865 1.8153 4.73233C2.02351 4.23601 2.32855 3.78616 2.71261 3.40909C3.09667 3.03202 3.55203 2.73527 4.05209 2.53621C4.55215 2.33715 5.08687 2.23975 5.625 2.24972C6.26172 2.24634 6.89189 2.37832 7.47374 2.63692C8.05559 2.89552 8.57584 3.27483 9 3.74972C9.42416 3.27483 9.94441 2.89552 10.5263 2.63692C11.1081 2.37832 11.7383 2.24634 12.375 2.24972C12.9131 2.23975 13.4479 2.33715 13.9479 2.53621C14.448 2.73527 14.9033 3.03202 15.2874 3.40909C15.6714 3.78616 15.9765 4.23601 16.1847 4.73233C16.3929 5.22865 16.5001 5.76149 16.5 6.29972C16.5 10.3167 11.7158 13.3497 9 15.7497C6.29025 13.3295 1.5 10.3197 1.5 6.29972Z" fill="black"/>
</svg>
