<svg width="138" height="138" viewBox="0 0 138 138" fill="none" xmlns="http://www.w3.org/2000/svg">
<path d="M56.5 7.21688C64.235 2.75106 73.765 2.75106 81.5 7.21688L116.256 27.2831C123.991 31.7489 128.756 40.0021 128.756 48.9338V89.0662C128.756 97.9979 123.991 106.251 116.256 110.717L81.5 130.783C73.765 135.249 64.235 135.249 56.5 130.783L21.7442 110.717C14.0092 106.251 9.24425 97.9979 9.24425 89.0662V48.9338C9.24425 40.0021 14.0092 31.7489 21.7442 27.2831L56.5 7.21688Z" fill="white"/>
<path d="M128.756 88.5317V89.0662C128.756 97.9979 123.991 106.251 116.256 110.717L81.5 130.783C73.765 135.249 64.235 135.249 56.5 130.783L21.7442 110.717C21.1716 110.386 20.6152 110.035 20.0758 109.664L17.5 101L26 68L33.5 56L55.5 78.5L82.5 38.5L128.756 88.5317Z" fill="#066C61"/>
<path d="M18.1726 108.217C14.6282 105.243 11.9954 101.354 10.5392 97.0095L10.5 96.5003C11.6667 83.5003 16.7 56.8002 27.5 54.0002C41.5 50.3706 48.5 96.5003 48.5 96.5003C48.5 96.5003 54.7204 32.2564 74 33.5003C89.5 34.5003 95.5 66.5003 91.5 125L91.4793 125.022L81.5 130.783C78.1083 132.742 74.3715 133.841 70.5923 134.082C77.5658 121.944 76.9064 74.0189 73.5 56.5002C71.5082 62.016 69.939 70.5012 68.2456 79.6577C64.4128 100.383 59.9439 124.547 48.5 125.5C48.0761 125.536 47.6559 125.513 47.2396 125.437L43.4536 123.251C36.248 116.272 30.6804 94.856 28.5 83.0003C28.103 93.7197 24.061 105.983 22.0451 110.891L21.7442 110.717C21.4834 110.567 21.2259 110.412 20.9718 110.252L18.1726 108.217Z" fill="#B3DBC9"/>
</svg>
